<svg xmlns="http://www.w3.org/2000/svg" height="112" viewBox="0 0 111 112" width="111"><path id="a" d="m80.2148438 13.8125h-59.4023438c-1.9511816 0-3.5952082.6684503-4.9321289 2.0053711-1.3369208 1.3369207-2.0053711 2.9809473-2.0053711 4.9321289v69.375c0 1.9511816.6684503 3.5952082 2.0053711 4.9321289 1.3369207 1.3369208 2.9809473 2.0053711 4.9321289 2.0053711h69.375c1.9511816 0 3.5952082-.6684503 4.9321289-2.0053711 1.3369208-1.3369207 2.0053711-2.9809473 2.0053711-4.9321289v-34.3623047l13.875-13.875v55.1748047c0 3.830097-1.354967 7.100084-4.064941 9.810059-2.709975 2.709974-5.979962 4.064941-9.810059 4.064941h-83.25c-3.8300973 0-7.10008411-1.354967-9.81005859-4.064941-2.70997449-2.709975-4.06494141-5.979962-4.06494141-9.810059v-83.25c0-3.83009728 1.35496692-7.10008411 4.06494141-9.81005859 2.70997448-2.70997449 5.97996129-4.06494141 9.81005859-4.06494141h80.2148438zm-54.4160157 44.5517578c-1.3007877-1.3730537-1.9511719-3.0170803-1.9511719-4.9321289s.6503842-3.5229427 1.9511719-4.8237305c1.3730538-1.3730537 3.0170803-2.0595703 4.9321289-2.0595703 1.9150487 0 3.5590752.6865166 4.9321289 2.0595703l19.6201172 19.6201172c1.3730538 1.3007878 2.0595703 2.9086819 2.0595703 4.8237305s-.6865165 3.5590752-2.0595703 4.9321289c-1.3730537 1.3730537-3.0170802 2.0595703-4.9321289 2.0595703-1.9150486 0-3.5590751-.6865166-4.9321289-2.0595703zm19.6201172 19.6201172c-1.3007877-1.3730537-1.9511719-3.0170803-1.9511719-4.9321289s.6503842-3.5229427 1.9511719-4.8237305l53.1152344-53.1152344c1.3730537-1.3730537 3.0170803-2.0595703 4.9321293-2.0595703 1.915048 0 3.559075.6865166 4.932129 2.0595703 1.300787 1.3730538 1.951171 3.0170803 1.951171 4.932129 0 1.9150486-.650384 3.5229427-1.951171 4.8237304l-53.1152349 53.1152344c-1.3730537 1.3730537-3.0170802 2.0595703-4.9321289 2.0595703-1.9150486 0-3.5590751-.6865166-4.9321289-2.0595703z"></path><g transform="translate(0 1)"></g> </svg>